# Blender v2.74 (sub 0) OBJ File: 'ship.blend'
# www.blender.org
mtllib ship.mtl
o Cube
v -5.695065 3.482339 22.528221
v -0.146867 3.482340 2.205897
v -5.695063 3.482340 2.205897
v -5.695065 3.482340 14.825044
v -0.146869 3.482340 14.825045
v -0.146868 3.482340 9.748667
v -5.695065 3.482340 9.748665
v -0.146867 3.482340 3.788260
v -5.695064 3.482340 3.788260
v 29.496761 3.482339 36.074463
v 29.496761 3.482340 28.371283
v 24.872364 3.482340 9.748667
v 24.872364 3.482340 3.788260
v -8.571480 2.821117 22.577600
v 1.000000 2.821121 1.000001
v -8.571478 2.821121 1.000000
v -8.571480 2.821119 12.730417
v 0.999997 2.821119 12.730418
v 0.999998 2.821120 10.642127
v -8.571480 2.821120 10.642126
v -8.571478 2.821120 3.022779
v 0.999999 2.821120 3.022779
v 36.415184 2.821117 39.894127
v 36.415184 2.821119 30.046944
v 28.564287 2.821120 10.642127
v 28.564287 2.821120 3.022779
v -5.695065 3.482339 -22.528221
v -0.146867 3.482340 -2.205897
v -5.695063 3.482340 -2.205897
v -0.146866 3.482340 0.000000
v -5.695063 3.482340 0.000000
v -5.695065 3.482340 -14.825044
v -0.146869 3.482340 -14.825045
v -0.146868 3.482340 -9.748667
v -5.695065 3.482340 -9.748665
v -0.146867 3.482340 -3.788260
v -5.695064 3.482340 -3.788260
v 29.496761 3.482339 -36.074463
v 29.496761 3.482340 -28.371283
v 15.886654 3.482340 -9.748667
v 15.886654 3.482340 -3.788260
v -8.571480 2.821117 -22.577600
v 1.000000 2.821121 -1.000001
v -8.571478 2.821121 -1.000000
v -8.571478 2.821121 0.000000
v 1.000000 2.821121 0.000000
v -8.571480 2.821119 -12.730417
v 0.999997 2.821119 -12.730418
v 0.999998 2.821120 -10.642127
v -8.571480 2.821120 -10.642126
v -8.571478 2.821120 -3.022779
v 0.999999 2.821120 -3.022779
v 36.415184 2.821117 -39.894127
v 36.415184 2.821119 -30.046944
v 19.578577 2.821120 -10.642127
v 19.578577 2.821120 -3.022779
v -5.695065 -3.482339 22.528221
v -0.146867 -3.482340 2.205897
v -5.695063 -3.482340 2.205897
v -5.695065 -3.482340 14.825044
v -0.146869 -3.482340 14.825045
v -0.146868 -3.482340 9.748667
v -5.695065 -3.482340 9.748665
v -0.146867 -3.482340 3.788260
v -5.695064 -3.482340 3.788260
v 29.496761 -3.482339 36.074463
v 29.496761 -3.482340 28.371283
v 24.872364 -3.482340 9.748667
v 24.872364 -3.482340 3.788260
v -8.571480 -2.821117 22.577600
v 1.000000 -2.821121 1.000001
v -8.571478 -2.821121 1.000000
v -8.571480 -2.821119 12.730417
v 0.999997 -2.821119 12.730418
v 0.999998 -2.821120 10.642127
v -8.571480 -2.821120 10.642126
v -8.571478 -2.821120 3.022779
v 0.999999 -2.821120 3.022779
v 36.415184 -2.821117 39.894127
v 36.415184 -2.821119 30.046944
v 28.564287 -2.821120 10.642127
v 28.564287 -2.821120 3.022779
v -8.571480 0.000000 22.577600
v 1.000000 0.000000 1.000000
v -8.571478 0.000000 1.000000
v -8.571480 0.000000 12.730417
v 0.999997 0.000000 12.730417
v 0.999998 0.000000 10.642126
v -8.571480 0.000000 10.642126
v -8.571478 0.000000 3.022779
v 0.999999 0.000000 3.022779
v 36.415184 0.000000 39.894127
v 36.415184 0.000000 30.046944
v 28.564287 0.000000 10.642126
v 28.564289 0.000000 3.022779
v -5.695065 -3.482339 -22.528221
v -0.146867 -3.482340 -2.205897
v -5.695063 -3.482340 -2.205897
v -0.146866 -3.482340 0.000000
v -5.695063 -3.482340 0.000000
v -5.695065 -3.482340 -14.825044
v -0.146869 -3.482340 -14.825045
v -0.146868 -3.482340 -9.748667
v -5.695065 -3.482340 -9.748665
v -0.146867 -3.482340 -3.788260
v -5.695064 -3.482340 -3.788260
v 29.496761 -3.482339 -36.074463
v 29.496761 -3.482340 -28.371283
v 15.886654 -3.482340 -9.748667
v 15.886654 -3.482340 -3.788260
v -8.571480 -2.821117 -22.577600
v 1.000000 -2.821121 -1.000001
v -8.571478 -2.821121 -1.000000
v -8.571478 -2.821121 0.000000
v 1.000000 -2.821121 0.000000
v -8.571480 -2.821119 -12.730417
v 0.999997 -2.821119 -12.730418
v 0.999998 -2.821120 -10.642127
v -8.571480 -2.821120 -10.642126
v -8.571478 -2.821120 -3.022779
v 0.999999 -2.821120 -3.022779
v 36.415184 -2.821117 -39.894127
v 36.415184 -2.821119 -30.046944
v 19.578577 -2.821120 -10.642127
v 19.578577 -2.821120 -3.022779
v -8.571480 0.000000 -22.577600
v 1.000000 0.000000 -1.000000
v -8.571478 0.000000 -1.000000
v -8.571478 0.000000 0.000000
v 1.000000 0.000000 0.000000
v -8.571480 0.000000 -12.730417
v 0.999997 0.000000 -12.730417
v 0.999998 0.000000 -10.642126
v -8.571480 0.000000 -10.642126
v -8.571478 0.000000 -3.022779
v 0.999999 0.000000 -3.022779
v 36.415184 0.000000 -39.894127
v 36.415184 0.000000 -30.046944
v 19.578577 0.000000 -10.642126
v 19.578579 0.000000 -3.022779
vn 0.000000 1.000000 0.000000
vn 0.499500 0.866300 0.000000
vn -0.224000 0.974600 0.000000
vn -0.187700 0.852700 0.487500
vn 0.139700 0.945400 -0.294500
vn 0.000000 0.756800 -0.653700
vn 0.095100 0.995500 0.000000
vn 0.176300 0.984300 0.000000
vn 0.000000 0.803800 0.594900
vn 1.000000 0.000000 0.000000
vn 0.000000 0.000000 -1.000000
vn 0.439300 0.000000 -0.898400
vn -0.359200 0.000000 0.933200
vn -1.000000 0.000000 0.000000
vn 0.000000 -0.000000 1.000000
vn -0.187700 0.852700 -0.487500
vn 0.139700 0.945400 0.294500
vn 0.000000 0.756800 0.653700
vn 0.000000 0.803800 -0.594900
vn 0.439300 0.000000 0.898400
vn -0.359200 0.000000 -0.933200
vn 0.000000 -1.000000 0.000000
vn 0.499500 -0.866300 0.000000
vn -0.224000 -0.974600 0.000000
vn -0.187700 -0.852700 0.487500
vn 0.139700 -0.945400 -0.294500
vn 0.000000 -0.756800 -0.653700
vn 0.095100 -0.995500 0.000000
vn 0.176300 -0.984300 0.000000
vn 0.000000 -0.803800 0.594900
vn -0.187700 -0.852700 -0.487500
vn 0.139700 -0.945400 0.294500
vn 0.000000 -0.756800 0.653700
vn 0.000000 -0.803800 -0.594900
usemtl Material
s off
f 30//1 31//1 3//1 2//1
f 46//2 30//2 2//2 15//2
f 16//3 3//3 31//3 45//3
f 14//4 23//4 10//4 1//4
f 18//5 5//5 11//5 24//5
f 19//2 6//2 5//2 18//2
f 6//1 7//1 4//1 5//1
f 8//1 9//1 7//1 6//1
f 22//6 8//6 13//6 26//6
f 15//2 2//2 8//2 22//2
f 2//1 3//1 9//1 8//1
f 24//7 11//7 10//7 23//7
f 1//1 10//1 11//1 5//1 4//1
f 26//8 13//8 12//8 25//8
f 8//1 6//1 12//1 13//1
f 6//9 19//9 25//9 12//9
f 95//10 26//10 25//10 94//10
f 93//10 24//10 23//10 92//10
f 84//10 15//10 22//10 91//10
f 3//3 16//3 21//3 9//3
f 9//3 21//3 20//3 7//3
f 91//11 22//11 26//11 95//11
f 88//10 19//10 18//10 87//10
f 4//3 17//3 14//3 1//3
f 87//12 18//12 24//12 93//12
f 83//13 92//13 23//13 14//13
f 85//14 16//14 45//14 129//14
f 7//3 20//3 17//3 4//3
f 130//10 46//10 15//10 84//10
f 20//14 89//14 86//14 17//14
f 17//14 86//14 83//14 14//14
f 21//14 90//14 89//14 20//14
f 16//14 85//14 90//14 21//14
f 19//15 88//15 94//15 25//15
f 30//1 28//1 29//1 31//1
f 46//2 43//2 28//2 30//2
f 44//3 45//3 31//3 29//3
f 42//16 27//16 38//16 53//16
f 48//17 54//17 39//17 33//17
f 49//2 48//2 33//2 34//2
f 34//1 33//1 32//1 35//1
f 36//1 34//1 35//1 37//1
f 52//18 56//18 41//18 36//18
f 43//2 52//2 36//2 28//2
f 28//1 36//1 37//1 29//1
f 54//7 53//7 38//7 39//7
f 27//1 32//1 33//1 39//1 38//1
f 56//8 55//8 40//8 41//8
f 36//1 41//1 40//1 34//1
f 34//19 40//19 55//19 49//19
f 140//10 139//10 55//10 56//10
f 138//10 137//10 53//10 54//10
f 127//10 136//10 52//10 43//10
f 29//3 37//3 51//3 44//3
f 37//3 35//3 50//3 51//3
f 136//15 140//15 56//15 52//15
f 133//10 132//10 48//10 49//10
f 32//3 27//3 42//3 47//3
f 132//20 138//20 54//20 48//20
f 126//21 42//21 53//21 137//21
f 128//14 129//14 45//14 44//14
f 35//3 32//3 47//3 50//3
f 130//10 127//10 43//10 46//10
f 50//14 47//14 131//14 134//14
f 47//14 42//14 126//14 131//14
f 51//14 50//14 134//14 135//14
f 44//14 51//14 135//14 128//14
f 49//11 55//11 139//11 133//11
f 99//22 58//22 59//22 100//22
f 115//23 71//23 58//23 99//23
f 72//24 114//24 100//24 59//24
f 70//25 57//25 66//25 79//25
f 74//26 80//26 67//26 61//26
f 75//23 74//23 61//23 62//23
f 62//22 61//22 60//22 63//22
f 64//22 62//22 63//22 65//22
f 78//27 82//27 69//27 64//27
f 71//23 78//23 64//23 58//23
f 58//22 64//22 65//22 59//22
f 80//28 79//28 66//28 67//28
f 57//22 60//22 61//22 67//22 66//22
f 82//29 81//29 68//29 69//29
f 64//22 69//22 68//22 62//22
f 62//30 68//30 81//30 75//30
f 95//10 94//10 81//10 82//10
f 93//10 92//10 79//10 80//10
f 84//10 91//10 78//10 71//10
f 59//24 65//24 77//24 72//24
f 65//24 63//24 76//24 77//24
f 91//11 95//11 82//11 78//11
f 88//10 87//10 74//10 75//10
f 60//24 57//24 70//24 73//24
f 87//12 93//12 80//12 74//12
f 83//13 70//13 79//13 92//13
f 85//14 129//14 114//14 72//14
f 63//24 60//24 73//24 76//24
f 130//10 84//10 71//10 115//10
f 76//14 73//14 86//14 89//14
f 73//14 70//14 83//14 86//14
f 77//14 76//14 89//14 90//14
f 72//14 77//14 90//14 85//14
f 75//15 81//15 94//15 88//15
f 99//22 100//22 98//22 97//22
f 115//23 99//23 97//23 112//23
f 113//24 98//24 100//24 114//24
f 111//31 122//31 107//31 96//31
f 117//32 102//32 108//32 123//32
f 118//23 103//23 102//23 117//23
f 103//22 104//22 101//22 102//22
f 105//22 106//22 104//22 103//22
f 121//33 105//33 110//33 125//33
f 112//23 97//23 105//23 121//23
f 97//22 98//22 106//22 105//22
f 123//28 108//28 107//28 122//28
f 96//22 107//22 108//22 102//22 101//22
f 125//29 110//29 109//29 124//29
f 105//22 103//22 109//22 110//22
f 103//34 118//34 124//34 109//34
f 140//10 125//10 124//10 139//10
f 138//10 123//10 122//10 137//10
f 127//10 112//10 121//10 136//10
f 98//24 113//24 120//24 106//24
f 106//24 120//24 119//24 104//24
f 136//15 121//15 125//15 140//15
f 133//10 118//10 117//10 132//10
f 101//24 116//24 111//24 96//24
f 132//20 117//20 123//20 138//20
f 126//21 137//21 122//21 111//21
f 128//14 113//14 114//14 129//14
f 104//24 119//24 116//24 101//24
f 130//10 115//10 112//10 127//10
f 119//14 134//14 131//14 116//14
f 116//14 131//14 126//14 111//14
f 120//14 135//14 134//14 119//14
f 113//14 128//14 135//14 120//14
f 118//11 133//11 139//11 124//11
